<svg width="152" height="29" viewBox="0 0 152 29" fill="none" xmlns="http://www.w3.org/2000/svg">
<path d="M32.5899 9.44727C32.1705 16.8055 26.0723 22.6431 18.6082 22.6431C11.1442 22.6431 5.04595 16.8055 4.62655 9.44727H0C0.423172 19.3597 8.5919 27.2639 18.6082 27.2639C28.6246 27.2639 36.7933 19.3578 37.2165 9.44727H32.5899Z" fill="white"/>
<path d="M23.3141 1.73584H18.6876V9.44739H23.3141V1.73584Z" fill="white"/>
<path d="M32.5672 1.73584H27.9407V9.44739H32.5672V1.73584Z" fill="white"/>
<path d="M54.8884 18.392C54.9844 18.84 55.1684 19.248 55.4404 19.616C55.7284 19.968 56.1044 20.248 56.5684 20.456C57.0484 20.664 57.6164 20.768 58.2724 20.768C59.2804 20.768 60.0324 20.536 60.5284 20.072C61.0244 19.592 61.2724 19.032 61.2724 18.392C61.2724 17.864 61.1124 17.424 60.7924 17.072C60.4884 16.72 60.0564 16.424 59.4964 16.184C58.9364 15.928 58.2964 15.688 57.5764 15.464C56.9204 15.272 56.2884 15.072 55.6804 14.864C55.0724 14.64 54.5204 14.368 54.0244 14.048C53.5444 13.712 53.1604 13.288 52.8724 12.776C52.5844 12.248 52.4484 11.592 52.4644 10.808C52.4644 9.784 52.7044 8.92 53.1844 8.216C53.6644 7.496 54.3364 6.952 55.2004 6.584C56.0644 6.216 57.0564 6.032 58.1764 6.032C59.1204 6.032 59.9684 6.168 60.7204 6.44C61.4884 6.696 62.1364 7.08 62.6644 7.592C63.1924 8.088 63.5844 8.704 63.8404 9.44L61.2244 10.304C61.1284 9.952 60.9364 9.64 60.6484 9.368C60.3604 9.08 60.0004 8.856 59.5684 8.696C59.1524 8.536 58.6964 8.448 58.2004 8.432C57.6564 8.416 57.1684 8.496 56.7364 8.672C56.3204 8.848 55.9844 9.104 55.7284 9.44C55.4724 9.76 55.3444 10.136 55.3444 10.568C55.3444 11.064 55.4884 11.456 55.7764 11.744C56.0644 12.016 56.4404 12.248 56.9044 12.44C57.3844 12.616 57.9124 12.8 58.4884 12.992C59.1604 13.184 59.8244 13.408 60.4804 13.664C61.1524 13.904 61.7604 14.216 62.3044 14.6C62.8644 14.968 63.3124 15.44 63.6484 16.016C63.9844 16.592 64.1524 17.312 64.1524 18.176C64.1524 19.104 63.9364 19.944 63.5044 20.696C63.0884 21.448 62.4484 22.048 61.5844 22.496C60.7204 22.944 59.6484 23.168 58.3684 23.168C57.3284 23.168 56.3764 23.016 55.5124 22.712C54.6644 22.392 53.9524 21.944 53.3764 21.368C52.8164 20.776 52.4484 20.08 52.2724 19.28L54.8884 18.392ZM66.8166 11H69.2646L69.4566 12.128C69.8566 11.728 70.3286 11.416 70.8726 11.192C71.4166 10.952 72.0086 10.832 72.6486 10.832C73.4486 10.832 74.1686 11 74.8086 11.336C75.4486 11.656 75.9686 12.128 76.3686 12.752C76.7846 12.128 77.3526 11.656 78.0726 11.336C78.7926 11 79.5686 10.832 80.4006 10.832C81.3446 10.832 82.1606 11.032 82.8486 11.432C83.5526 11.816 84.0966 12.392 84.4806 13.16C84.8646 13.912 85.0566 14.856 85.0566 15.992V23H82.3206V16.352C82.3206 15.344 82.1046 14.584 81.6726 14.072C81.2566 13.56 80.6406 13.304 79.8246 13.304C78.9926 13.304 78.3446 13.568 77.8806 14.096C77.4166 14.608 77.1846 15.376 77.1846 16.4V23H74.4726V16.352C74.4726 15.344 74.2726 14.584 73.8726 14.072C73.4886 13.56 72.8886 13.304 72.0726 13.304C71.2406 13.304 70.6086 13.568 70.1766 14.096C69.7446 14.608 69.5286 15.368 69.5286 16.376V23H66.8166V11ZM88.435 11H91.147V23H88.435V11ZM89.803 9.176C89.307 9.176 88.891 9.008 88.555 8.672C88.219 8.336 88.051 7.936 88.051 7.472C88.051 6.976 88.219 6.56 88.555 6.224C88.891 5.888 89.307 5.72 89.803 5.72C90.283 5.72 90.691 5.888 91.027 6.224C91.363 6.56 91.531 6.976 91.531 7.472C91.531 7.936 91.363 8.336 91.027 8.672C90.691 9.008 90.283 9.176 89.803 9.176ZM94.7307 5.72H97.4427V23H94.7307V5.72ZM105.989 23.168C104.789 23.168 103.733 22.904 102.821 22.376C101.925 21.848 101.221 21.112 100.709 20.168C100.213 19.224 99.9655 18.136 99.9655 16.904C99.9655 15.736 100.213 14.696 100.709 13.784C101.205 12.872 101.893 12.152 102.773 11.624C103.653 11.096 104.653 10.832 105.773 10.832C106.909 10.832 107.909 11.08 108.773 11.576C109.637 12.072 110.309 12.768 110.789 13.664C111.285 14.544 111.533 15.568 111.533 16.736C111.533 16.928 111.525 17.136 111.509 17.36C111.493 17.568 111.469 17.792 111.437 18.032H102.893C102.973 18.592 103.149 19.08 103.421 19.496C103.709 19.896 104.069 20.208 104.501 20.432C104.933 20.656 105.429 20.768 105.989 20.768C106.661 20.768 107.261 20.632 107.789 20.36C108.333 20.088 108.709 19.728 108.917 19.28L111.293 20.072C110.813 21.032 110.101 21.792 109.157 22.352C108.213 22.896 107.157 23.168 105.989 23.168ZM108.581 15.824C108.565 15.328 108.429 14.88 108.173 14.48C107.917 14.08 107.581 13.768 107.165 13.544C106.749 13.304 106.285 13.184 105.773 13.184C105.325 13.184 104.901 13.296 104.501 13.52C104.101 13.744 103.757 14.056 103.469 14.456C103.197 14.84 103.021 15.296 102.941 15.824H108.581ZM120.889 6.2H123.721V16.904C123.721 17.752 123.889 18.464 124.225 19.04C124.577 19.616 125.049 20.048 125.641 20.336C126.233 20.608 126.905 20.744 127.657 20.744C128.441 20.744 129.129 20.608 129.721 20.336C130.313 20.048 130.777 19.616 131.113 19.04C131.465 18.464 131.641 17.752 131.641 16.904V6.2H134.473V16.832C134.473 17.904 134.281 18.84 133.897 19.64C133.529 20.424 133.017 21.08 132.361 21.608C131.721 22.136 130.993 22.528 130.177 22.784C129.377 23.04 128.529 23.168 127.633 23.168C126.449 23.168 125.345 22.936 124.321 22.472C123.297 22.008 122.465 21.312 121.825 20.384C121.201 19.44 120.889 18.256 120.889 16.832V6.2ZM140.185 21.224L140.497 21.152V27.8H137.785V11H140.233L140.425 12.488C140.825 12.024 141.345 11.632 141.985 11.312C142.625 10.992 143.401 10.832 144.313 10.832C145.353 10.832 146.273 11.088 147.073 11.6C147.889 12.112 148.521 12.832 148.969 13.76C149.433 14.672 149.665 15.752 149.665 17C149.665 18.232 149.433 19.312 148.969 20.24C148.521 21.168 147.897 21.888 147.097 22.4C146.297 22.912 145.369 23.168 144.313 23.168C143.353 23.168 142.521 22.984 141.817 22.616C141.113 22.232 140.569 21.768 140.185 21.224ZM146.761 17C146.761 15.896 146.465 15 145.873 14.312C145.297 13.624 144.553 13.28 143.641 13.28C143.065 13.28 142.537 13.424 142.057 13.712C141.593 14 141.217 14.416 140.929 14.96C140.641 15.504 140.497 16.184 140.497 17C140.497 17.8 140.641 18.48 140.929 19.04C141.217 19.584 141.593 20 142.057 20.288C142.537 20.576 143.065 20.72 143.641 20.72C144.553 20.72 145.297 20.376 145.873 19.688C146.465 19 146.761 18.104 146.761 17Z" fill="white"/>
</svg>
