<svg width="152" height="30" viewBox="0 0 152 30" fill="none" xmlns="http://www.w3.org/2000/svg">
<path d="M32.5899 9.94745C32.1705 17.3057 26.0723 23.1432 18.6082 23.1432C11.1442 23.1432 5.04595 17.3057 4.62655 9.94745H0C0.423172 19.8599 8.5919 27.7641 18.6082 27.7641C28.6246 27.7641 36.7933 19.858 37.2165 9.94745H32.5899Z" fill="#48CFCB"/>
<path d="M23.3141 2.2359H18.6876V9.94745H23.3141V2.2359Z" fill="#48CFCB"/>
<path d="M32.5672 2.2359H27.9407V9.94745H32.5672V2.2359Z" fill="#48CFCB"/>
<path d="M54.8884 18.892C54.9844 19.34 55.1684 19.748 55.4404 20.116C55.7284 20.468 56.1044 20.748 56.5684 20.956C57.0484 21.164 57.6164 21.268 58.2724 21.268C59.2804 21.268 60.0324 21.036 60.5284 20.572C61.0244 20.092 61.2724 19.532 61.2724 18.892C61.2724 18.364 61.1124 17.924 60.7924 17.572C60.4884 17.22 60.0564 16.924 59.4964 16.684C58.9364 16.428 58.2964 16.188 57.5764 15.964C56.9204 15.772 56.2884 15.572 55.6804 15.364C55.0724 15.14 54.5204 14.868 54.0244 14.548C53.5444 14.212 53.1604 13.788 52.8724 13.276C52.5844 12.748 52.4484 12.092 52.4644 11.308C52.4644 10.284 52.7044 9.42 53.1844 8.716C53.6644 7.996 54.3364 7.452 55.2004 7.084C56.0644 6.716 57.0564 6.532 58.1764 6.532C59.1204 6.532 59.9684 6.668 60.7204 6.94C61.4884 7.196 62.1364 7.58 62.6644 8.092C63.1924 8.588 63.5844 9.204 63.8404 9.94L61.2244 10.804C61.1284 10.452 60.9364 10.14 60.6484 9.868C60.3604 9.58 60.0004 9.356 59.5684 9.196C59.1524 9.036 58.6964 8.948 58.2004 8.932C57.6564 8.916 57.1684 8.996 56.7364 9.172C56.3204 9.348 55.9844 9.604 55.7284 9.94C55.4724 10.26 55.3444 10.636 55.3444 11.068C55.3444 11.564 55.4884 11.956 55.7764 12.244C56.0644 12.516 56.4404 12.748 56.9044 12.94C57.3844 13.116 57.9124 13.3 58.4884 13.492C59.1604 13.684 59.8244 13.908 60.4804 14.164C61.1524 14.404 61.7604 14.716 62.3044 15.1C62.8644 15.468 63.3124 15.94 63.6484 16.516C63.9844 17.092 64.1524 17.812 64.1524 18.676C64.1524 19.604 63.9364 20.444 63.5044 21.196C63.0884 21.948 62.4484 22.548 61.5844 22.996C60.7204 23.444 59.6484 23.668 58.3684 23.668C57.3284 23.668 56.3764 23.516 55.5124 23.212C54.6644 22.892 53.9524 22.444 53.3764 21.868C52.8164 21.276 52.4484 20.58 52.2724 19.78L54.8884 18.892ZM66.8166 11.5H69.2646L69.4566 12.628C69.8566 12.228 70.3286 11.916 70.8726 11.692C71.4166 11.452 72.0086 11.332 72.6486 11.332C73.4486 11.332 74.1686 11.5 74.8086 11.836C75.4486 12.156 75.9686 12.628 76.3686 13.252C76.7846 12.628 77.3526 12.156 78.0726 11.836C78.7926 11.5 79.5686 11.332 80.4006 11.332C81.3446 11.332 82.1606 11.532 82.8486 11.932C83.5526 12.316 84.0966 12.892 84.4806 13.66C84.8646 14.412 85.0566 15.356 85.0566 16.492V23.5H82.3206V16.852C82.3206 15.844 82.1046 15.084 81.6726 14.572C81.2566 14.06 80.6406 13.804 79.8246 13.804C78.9926 13.804 78.3446 14.068 77.8806 14.596C77.4166 15.108 77.1846 15.876 77.1846 16.9V23.5H74.4726V16.852C74.4726 15.844 74.2726 15.084 73.8726 14.572C73.4886 14.06 72.8886 13.804 72.0726 13.804C71.2406 13.804 70.6086 14.068 70.1766 14.596C69.7446 15.108 69.5286 15.868 69.5286 16.876V23.5H66.8166V11.5ZM88.435 11.5H91.147V23.5H88.435V11.5ZM89.803 9.676C89.307 9.676 88.891 9.508 88.555 9.172C88.219 8.836 88.051 8.436 88.051 7.972C88.051 7.476 88.219 7.06 88.555 6.724C88.891 6.388 89.307 6.22 89.803 6.22C90.283 6.22 90.691 6.388 91.027 6.724C91.363 7.06 91.531 7.476 91.531 7.972C91.531 8.436 91.363 8.836 91.027 9.172C90.691 9.508 90.283 9.676 89.803 9.676ZM94.7307 6.22H97.4427V23.5H94.7307V6.22ZM105.989 23.668C104.789 23.668 103.733 23.404 102.821 22.876C101.925 22.348 101.221 21.612 100.709 20.668C100.213 19.724 99.9655 18.636 99.9655 17.404C99.9655 16.236 100.213 15.196 100.709 14.284C101.205 13.372 101.893 12.652 102.773 12.124C103.653 11.596 104.653 11.332 105.773 11.332C106.909 11.332 107.909 11.58 108.773 12.076C109.637 12.572 110.309 13.268 110.789 14.164C111.285 15.044 111.533 16.068 111.533 17.236C111.533 17.428 111.525 17.636 111.509 17.86C111.493 18.068 111.469 18.292 111.437 18.532H102.893C102.973 19.092 103.149 19.58 103.421 19.996C103.709 20.396 104.069 20.708 104.501 20.932C104.933 21.156 105.429 21.268 105.989 21.268C106.661 21.268 107.261 21.132 107.789 20.86C108.333 20.588 108.709 20.228 108.917 19.78L111.293 20.572C110.813 21.532 110.101 22.292 109.157 22.852C108.213 23.396 107.157 23.668 105.989 23.668ZM108.581 16.324C108.565 15.828 108.429 15.38 108.173 14.98C107.917 14.58 107.581 14.268 107.165 14.044C106.749 13.804 106.285 13.684 105.773 13.684C105.325 13.684 104.901 13.796 104.501 14.02C104.101 14.244 103.757 14.556 103.469 14.956C103.197 15.34 103.021 15.796 102.941 16.324H108.581ZM120.889 6.7H123.721V17.404C123.721 18.252 123.889 18.964 124.225 19.54C124.577 20.116 125.049 20.548 125.641 20.836C126.233 21.108 126.905 21.244 127.657 21.244C128.441 21.244 129.129 21.108 129.721 20.836C130.313 20.548 130.777 20.116 131.113 19.54C131.465 18.964 131.641 18.252 131.641 17.404V6.7H134.473V17.332C134.473 18.404 134.281 19.34 133.897 20.14C133.529 20.924 133.017 21.58 132.361 22.108C131.721 22.636 130.993 23.028 130.177 23.284C129.377 23.54 128.529 23.668 127.633 23.668C126.449 23.668 125.345 23.436 124.321 22.972C123.297 22.508 122.465 21.812 121.825 20.884C121.201 19.94 120.889 18.756 120.889 17.332V6.7ZM140.185 21.724L140.497 21.652V28.3H137.785V11.5H140.233L140.425 12.988C140.825 12.524 141.345 12.132 141.985 11.812C142.625 11.492 143.401 11.332 144.313 11.332C145.353 11.332 146.273 11.588 147.073 12.1C147.889 12.612 148.521 13.332 148.969 14.26C149.433 15.172 149.665 16.252 149.665 17.5C149.665 18.732 149.433 19.812 148.969 20.74C148.521 21.668 147.897 22.388 147.097 22.9C146.297 23.412 145.369 23.668 144.313 23.668C143.353 23.668 142.521 23.484 141.817 23.116C141.113 22.732 140.569 22.268 140.185 21.724ZM146.761 17.5C146.761 16.396 146.465 15.5 145.873 14.812C145.297 14.124 144.553 13.78 143.641 13.78C143.065 13.78 142.537 13.924 142.057 14.212C141.593 14.5 141.217 14.916 140.929 15.46C140.641 16.004 140.497 16.684 140.497 17.5C140.497 18.3 140.641 18.98 140.929 19.54C141.217 20.084 141.593 20.5 142.057 20.788C142.537 21.076 143.065 21.22 143.641 21.22C144.553 21.22 145.297 20.876 145.873 20.188C146.465 19.5 146.761 18.604 146.761 17.5Z" fill="#424242"/>
</svg>
